# xmcd
#
# Track frame offsets: 
#        150
#        24342
#        48277
#        79697
#        109978
#        138560
#        157874
#        180982
#        204769
#        226997
#
# Disc length: 3281 seconds
#
# Revision: 5
# Processed by: cddbd v1.5.2PL0 Copyright (c) Steve Scherf et al.
# Submitted via: ExactAudioCopy v0.99pb5
#
DISCID=6e0ccf0a
DTITLE=Joe Louis Walker - New Direction
DYEAR=2004
DGENRE=Blues
TTITLE0=Do You Love Me?
TTITLE1=Custom Cars, Gibson Guitars
TTITLE2=Messed My Mind Up
TTITLE3=New Direction
TTITLE4=You Don't Love Me Girl
TTITLE5=Tempting Me
TTITLE6=Soldier For Jesus
TTITLE7=Mr. G's Boogie
TTITLE8=Ain't That Cold
TTITLE9=Lena
EXTD=
EXTT0=
EXTT1=
EXTT2=
EXTT3=
EXTT4=
EXTT5=
EXTT6=
EXTT7=
EXTT8=
EXTT9=
PLAYORDER=
